<svg xmlns="http://www.w3.org/2000/svg" version="1.1" xmlns:xlink="http://www.w3.org/1999/xlink" xmlns:svgjs="http://svgjs.com/svgjs" width="1440" height="1024" preserveAspectRatio="none" viewBox="0 0 1440 1024">
    <g mask="url(&quot;#SvgjsMask1004&quot;)" fill="none">
        <rect width="1440" height="1024" x="0" y="0" fill="rgba(4, 33, 51, 1)"></rect>
        <path d="M9.51 201.15L74.46 238.65L74.46 313.65L9.51 351.15L-55.44 313.65L-55.44 238.65zM74.46 763.65L139.42 801.15L139.42 876.15L74.46 913.65L9.51 876.15L9.51 801.15zM74.46 988.65L139.42 1026.15L139.42 1101.15L74.46 1138.65L9.51 1101.15L9.51 1026.15zM204.37 88.65L269.32 126.15L269.32 201.15L204.37 238.65L139.42 201.15L139.42 126.15zM139.42 426.15L204.37 463.65L204.37 538.65L139.42 576.15L74.46 538.65L74.46 463.65zM269.32 201.15L334.28 238.65L334.28 313.65L269.32 351.15L204.37 313.65L204.37 238.65zM269.32 426.15L334.28 463.65L334.28 538.65L269.32 576.15L204.37 538.65L204.37 463.65zM269.32 651.15L334.28 688.65L334.28 763.65L269.32 801.15L204.37 763.65L204.37 688.65zM334.28 763.65L399.23 801.15L399.23 876.15L334.28 913.65L269.32 876.15L269.32 801.15zM334.28 988.65L399.23 1026.15L399.23 1101.15L334.28 1138.65L269.32 1101.15L269.32 1026.15zM464.19 88.65L529.14 126.15L529.14 201.15L464.19 238.65L399.23 201.15L399.23 126.15zM399.23 201.15L464.19 238.65L464.19 313.65L399.23 351.15L334.28 313.65L334.28 238.65zM464.19 313.65L529.14 351.15L529.14 426.15L464.19 463.65L399.23 426.15L399.23 351.15zM464.19 988.65L529.14 1026.15L529.14 1101.15L464.19 1138.65L399.23 1101.15L399.23 1026.15zM529.14 201.15L594.09 238.65L594.09 313.65L529.14 351.15L464.19 313.65L464.19 238.65zM529.14 651.15L594.09 688.65L594.09 763.65L529.14 801.15L464.19 763.65L464.19 688.65zM529.14 876.15L594.09 913.65L594.09 988.65L529.14 1026.15L464.19 988.65L464.19 913.65zM659.05 -23.85L724 13.65L724 88.65L659.05 126.15L594.09 88.65L594.09 13.65zM659.05 201.15L724 238.65L724 313.65L659.05 351.15L594.09 313.65L594.09 238.65zM659.05 876.15L724 913.65L724 988.65L659.05 1026.15L594.09 988.65L594.09 913.65zM853.91 538.65L918.86 576.15L918.86 651.15L853.91 688.65L788.95 651.15L788.95 576.15zM918.86 426.15L983.82 463.65L983.82 538.65L918.86 576.15L853.91 538.65L853.91 463.65zM918.86 651.15L983.82 688.65L983.82 763.65L918.86 801.15L853.91 763.65L853.91 688.65zM1048.77 201.15L1113.72 238.65L1113.72 313.65L1048.77 351.15L983.82 313.65L983.82 238.65zM1113.72 313.65L1178.68 351.15L1178.68 426.15L1113.72 463.65L1048.77 426.15L1048.77 351.15zM1048.77 426.15L1113.72 463.65L1113.72 538.65L1048.77 576.15L983.82 538.65L983.82 463.65zM1113.72 763.65L1178.68 801.15L1178.68 876.15L1113.72 913.65L1048.77 876.15L1048.77 801.15zM1113.72 988.65L1178.68 1026.15L1178.68 1101.15L1113.72 1138.65L1048.77 1101.15L1048.77 1026.15zM1243.63 88.65L1308.58 126.15L1308.58 201.15L1243.63 238.65L1178.68 201.15L1178.68 126.15zM1178.68 201.15L1243.63 238.65L1243.63 313.65L1178.68 351.15L1113.72 313.65L1113.72 238.65zM1243.63 538.65L1308.58 576.15L1308.58 651.15L1243.63 688.65L1178.68 651.15L1178.68 576.15zM1243.63 988.65L1308.58 1026.15L1308.58 1101.15L1243.63 1138.65L1178.68 1101.15L1178.68 1026.15zM1308.59 876.15L1373.54 913.65L1373.54 988.65L1308.59 1026.15L1243.63 988.65L1243.63 913.65zM1438.49 201.15L1503.45 238.65L1503.45 313.65L1438.49 351.15L1373.54 313.65L1373.54 238.65zM1503.45 313.65L1568.4 351.15L1568.4 426.15L1503.45 463.65L1438.49 426.15L1438.49 351.15zM1438.49 651.15L1503.45 688.65L1503.45 763.65L1438.49 801.15L1373.54 763.65L1373.54 688.65zM1503.45 763.65L1568.4 801.15L1568.4 876.15L1503.45 913.65L1438.49 876.15L1438.49 801.15z" stroke="#03305d" stroke-width="2"></path>
        <path d="M2.01 201.15 a7.5 7.5 0 1 0 15 0 a7.5 7.5 0 1 0 -15 0zM66.96 238.65 a7.5 7.5 0 1 0 15 0 a7.5 7.5 0 1 0 -15 0zM66.96 313.65 a7.5 7.5 0 1 0 15 0 a7.5 7.5 0 1 0 -15 0zM2.01 351.15 a7.5 7.5 0 1 0 15 0 a7.5 7.5 0 1 0 -15 0zM-62.94 313.65 a7.5 7.5 0 1 0 15 0 a7.5 7.5 0 1 0 -15 0zM-62.94 238.65 a7.5 7.5 0 1 0 15 0 a7.5 7.5 0 1 0 -15 0zM66.96 763.65 a7.5 7.5 0 1 0 15 0 a7.5 7.5 0 1 0 -15 0zM131.92 801.15 a7.5 7.5 0 1 0 15 0 a7.5 7.5 0 1 0 -15 0zM131.92 876.15 a7.5 7.5 0 1 0 15 0 a7.5 7.5 0 1 0 -15 0zM66.96 913.65 a7.5 7.5 0 1 0 15 0 a7.5 7.5 0 1 0 -15 0zM2.01 876.15 a7.5 7.5 0 1 0 15 0 a7.5 7.5 0 1 0 -15 0zM2.01 801.15 a7.5 7.5 0 1 0 15 0 a7.5 7.5 0 1 0 -15 0zM66.96 988.65 a7.5 7.5 0 1 0 15 0 a7.5 7.5 0 1 0 -15 0zM131.92 1026.15 a7.5 7.5 0 1 0 15 0 a7.5 7.5 0 1 0 -15 0zM131.92 1101.15 a7.5 7.5 0 1 0 15 0 a7.5 7.5 0 1 0 -15 0zM66.96 1138.65 a7.5 7.5 0 1 0 15 0 a7.5 7.5 0 1 0 -15 0zM2.01 1101.15 a7.5 7.5 0 1 0 15 0 a7.5 7.5 0 1 0 -15 0zM2.01 1026.15 a7.5 7.5 0 1 0 15 0 a7.5 7.5 0 1 0 -15 0zM196.87 88.65 a7.5 7.5 0 1 0 15 0 a7.5 7.5 0 1 0 -15 0zM261.82 126.15 a7.5 7.5 0 1 0 15 0 a7.5 7.5 0 1 0 -15 0zM261.82 201.15 a7.5 7.5 0 1 0 15 0 a7.5 7.5 0 1 0 -15 0zM196.87 238.65 a7.5 7.5 0 1 0 15 0 a7.5 7.5 0 1 0 -15 0zM131.92 201.15 a7.5 7.5 0 1 0 15 0 a7.5 7.5 0 1 0 -15 0zM131.92 126.15 a7.5 7.5 0 1 0 15 0 a7.5 7.5 0 1 0 -15 0zM131.92 426.15 a7.5 7.5 0 1 0 15 0 a7.5 7.5 0 1 0 -15 0zM196.87 463.65 a7.5 7.5 0 1 0 15 0 a7.5 7.5 0 1 0 -15 0zM196.87 538.65 a7.5 7.5 0 1 0 15 0 a7.5 7.5 0 1 0 -15 0zM131.92 576.15 a7.5 7.5 0 1 0 15 0 a7.5 7.5 0 1 0 -15 0zM66.96 538.65 a7.5 7.5 0 1 0 15 0 a7.5 7.5 0 1 0 -15 0zM66.96 463.65 a7.5 7.5 0 1 0 15 0 a7.5 7.5 0 1 0 -15 0zM326.78 238.65 a7.5 7.5 0 1 0 15 0 a7.5 7.5 0 1 0 -15 0zM326.78 313.65 a7.5 7.5 0 1 0 15 0 a7.5 7.5 0 1 0 -15 0zM261.82 351.15 a7.5 7.5 0 1 0 15 0 a7.5 7.5 0 1 0 -15 0zM196.87 313.65 a7.5 7.5 0 1 0 15 0 a7.5 7.5 0 1 0 -15 0zM261.82 426.15 a7.5 7.5 0 1 0 15 0 a7.5 7.5 0 1 0 -15 0zM326.78 463.65 a7.5 7.5 0 1 0 15 0 a7.5 7.5 0 1 0 -15 0zM326.78 538.65 a7.5 7.5 0 1 0 15 0 a7.5 7.5 0 1 0 -15 0zM261.82 576.15 a7.5 7.5 0 1 0 15 0 a7.5 7.5 0 1 0 -15 0zM261.82 651.15 a7.5 7.5 0 1 0 15 0 a7.5 7.5 0 1 0 -15 0zM326.78 688.65 a7.5 7.5 0 1 0 15 0 a7.5 7.5 0 1 0 -15 0zM326.78 763.65 a7.5 7.5 0 1 0 15 0 a7.5 7.5 0 1 0 -15 0zM261.82 801.15 a7.5 7.5 0 1 0 15 0 a7.5 7.5 0 1 0 -15 0zM196.87 763.65 a7.5 7.5 0 1 0 15 0 a7.5 7.5 0 1 0 -15 0zM196.87 688.65 a7.5 7.5 0 1 0 15 0 a7.5 7.5 0 1 0 -15 0zM391.73 801.15 a7.5 7.5 0 1 0 15 0 a7.5 7.5 0 1 0 -15 0zM391.73 876.15 a7.5 7.5 0 1 0 15 0 a7.5 7.5 0 1 0 -15 0zM326.78 913.65 a7.5 7.5 0 1 0 15 0 a7.5 7.5 0 1 0 -15 0zM261.82 876.15 a7.5 7.5 0 1 0 15 0 a7.5 7.5 0 1 0 -15 0zM326.78 988.65 a7.5 7.5 0 1 0 15 0 a7.5 7.5 0 1 0 -15 0zM391.73 1026.15 a7.5 7.5 0 1 0 15 0 a7.5 7.5 0 1 0 -15 0zM391.73 1101.15 a7.5 7.5 0 1 0 15 0 a7.5 7.5 0 1 0 -15 0zM326.78 1138.65 a7.5 7.5 0 1 0 15 0 a7.5 7.5 0 1 0 -15 0zM261.82 1101.15 a7.5 7.5 0 1 0 15 0 a7.5 7.5 0 1 0 -15 0zM261.82 1026.15 a7.5 7.5 0 1 0 15 0 a7.5 7.5 0 1 0 -15 0zM456.69 88.65 a7.5 7.5 0 1 0 15 0 a7.5 7.5 0 1 0 -15 0zM521.64 126.15 a7.5 7.5 0 1 0 15 0 a7.5 7.5 0 1 0 -15 0zM521.64 201.15 a7.5 7.5 0 1 0 15 0 a7.5 7.5 0 1 0 -15 0zM456.69 238.65 a7.5 7.5 0 1 0 15 0 a7.5 7.5 0 1 0 -15 0zM391.73 201.15 a7.5 7.5 0 1 0 15 0 a7.5 7.5 0 1 0 -15 0zM391.73 126.15 a7.5 7.5 0 1 0 15 0 a7.5 7.5 0 1 0 -15 0zM456.69 313.65 a7.5 7.5 0 1 0 15 0 a7.5 7.5 0 1 0 -15 0zM391.73 351.15 a7.5 7.5 0 1 0 15 0 a7.5 7.5 0 1 0 -15 0zM521.64 351.15 a7.5 7.5 0 1 0 15 0 a7.5 7.5 0 1 0 -15 0zM521.64 426.15 a7.5 7.5 0 1 0 15 0 a7.5 7.5 0 1 0 -15 0zM456.69 463.65 a7.5 7.5 0 1 0 15 0 a7.5 7.5 0 1 0 -15 0zM391.73 426.15 a7.5 7.5 0 1 0 15 0 a7.5 7.5 0 1 0 -15 0zM456.69 988.65 a7.5 7.5 0 1 0 15 0 a7.5 7.5 0 1 0 -15 0zM521.64 1026.15 a7.5 7.5 0 1 0 15 0 a7.5 7.5 0 1 0 -15 0zM521.64 1101.15 a7.5 7.5 0 1 0 15 0 a7.5 7.5 0 1 0 -15 0zM456.69 1138.65 a7.5 7.5 0 1 0 15 0 a7.5 7.5 0 1 0 -15 0zM586.59 238.65 a7.5 7.5 0 1 0 15 0 a7.5 7.5 0 1 0 -15 0zM586.59 313.65 a7.5 7.5 0 1 0 15 0 a7.5 7.5 0 1 0 -15 0zM521.64 651.15 a7.5 7.5 0 1 0 15 0 a7.5 7.5 0 1 0 -15 0zM586.59 688.65 a7.5 7.5 0 1 0 15 0 a7.5 7.5 0 1 0 -15 0zM586.59 763.65 a7.5 7.5 0 1 0 15 0 a7.5 7.5 0 1 0 -15 0zM521.64 801.15 a7.5 7.5 0 1 0 15 0 a7.5 7.5 0 1 0 -15 0zM456.69 763.65 a7.5 7.5 0 1 0 15 0 a7.5 7.5 0 1 0 -15 0zM456.69 688.65 a7.5 7.5 0 1 0 15 0 a7.5 7.5 0 1 0 -15 0zM521.64 876.15 a7.5 7.5 0 1 0 15 0 a7.5 7.5 0 1 0 -15 0zM586.59 913.65 a7.5 7.5 0 1 0 15 0 a7.5 7.5 0 1 0 -15 0zM586.59 988.65 a7.5 7.5 0 1 0 15 0 a7.5 7.5 0 1 0 -15 0zM456.69 913.65 a7.5 7.5 0 1 0 15 0 a7.5 7.5 0 1 0 -15 0zM651.55 -23.85 a7.5 7.5 0 1 0 15 0 a7.5 7.5 0 1 0 -15 0zM716.5 13.65 a7.5 7.5 0 1 0 15 0 a7.5 7.5 0 1 0 -15 0zM716.5 88.65 a7.5 7.5 0 1 0 15 0 a7.5 7.5 0 1 0 -15 0zM651.55 126.15 a7.5 7.5 0 1 0 15 0 a7.5 7.5 0 1 0 -15 0zM586.59 88.65 a7.5 7.5 0 1 0 15 0 a7.5 7.5 0 1 0 -15 0zM586.59 13.65 a7.5 7.5 0 1 0 15 0 a7.5 7.5 0 1 0 -15 0zM651.55 201.15 a7.5 7.5 0 1 0 15 0 a7.5 7.5 0 1 0 -15 0zM716.5 238.65 a7.5 7.5 0 1 0 15 0 a7.5 7.5 0 1 0 -15 0zM716.5 313.65 a7.5 7.5 0 1 0 15 0 a7.5 7.5 0 1 0 -15 0zM651.55 351.15 a7.5 7.5 0 1 0 15 0 a7.5 7.5 0 1 0 -15 0zM651.55 876.15 a7.5 7.5 0 1 0 15 0 a7.5 7.5 0 1 0 -15 0zM716.5 913.65 a7.5 7.5 0 1 0 15 0 a7.5 7.5 0 1 0 -15 0zM716.5 988.65 a7.5 7.5 0 1 0 15 0 a7.5 7.5 0 1 0 -15 0zM651.55 1026.15 a7.5 7.5 0 1 0 15 0 a7.5 7.5 0 1 0 -15 0zM846.41 538.65 a7.5 7.5 0 1 0 15 0 a7.5 7.5 0 1 0 -15 0zM911.36 576.15 a7.5 7.5 0 1 0 15 0 a7.5 7.5 0 1 0 -15 0zM911.36 651.15 a7.5 7.5 0 1 0 15 0 a7.5 7.5 0 1 0 -15 0zM846.41 688.65 a7.5 7.5 0 1 0 15 0 a7.5 7.5 0 1 0 -15 0zM781.45 651.15 a7.5 7.5 0 1 0 15 0 a7.5 7.5 0 1 0 -15 0zM781.45 576.15 a7.5 7.5 0 1 0 15 0 a7.5 7.5 0 1 0 -15 0zM911.36 426.15 a7.5 7.5 0 1 0 15 0 a7.5 7.5 0 1 0 -15 0zM976.32 463.65 a7.5 7.5 0 1 0 15 0 a7.5 7.5 0 1 0 -15 0zM976.32 538.65 a7.5 7.5 0 1 0 15 0 a7.5 7.5 0 1 0 -15 0zM846.41 463.65 a7.5 7.5 0 1 0 15 0 a7.5 7.5 0 1 0 -15 0zM976.32 688.65 a7.5 7.5 0 1 0 15 0 a7.5 7.5 0 1 0 -15 0zM976.32 763.65 a7.5 7.5 0 1 0 15 0 a7.5 7.5 0 1 0 -15 0zM911.36 801.15 a7.5 7.5 0 1 0 15 0 a7.5 7.5 0 1 0 -15 0zM846.41 763.65 a7.5 7.5 0 1 0 15 0 a7.5 7.5 0 1 0 -15 0zM1041.27 201.15 a7.5 7.5 0 1 0 15 0 a7.5 7.5 0 1 0 -15 0zM1106.22 238.65 a7.5 7.5 0 1 0 15 0 a7.5 7.5 0 1 0 -15 0zM1106.22 313.65 a7.5 7.5 0 1 0 15 0 a7.5 7.5 0 1 0 -15 0zM1041.27 351.15 a7.5 7.5 0 1 0 15 0 a7.5 7.5 0 1 0 -15 0zM976.32 313.65 a7.5 7.5 0 1 0 15 0 a7.5 7.5 0 1 0 -15 0zM976.32 238.65 a7.5 7.5 0 1 0 15 0 a7.5 7.5 0 1 0 -15 0zM1171.18 351.15 a7.5 7.5 0 1 0 15 0 a7.5 7.5 0 1 0 -15 0zM1171.18 426.15 a7.5 7.5 0 1 0 15 0 a7.5 7.5 0 1 0 -15 0zM1106.22 463.65 a7.5 7.5 0 1 0 15 0 a7.5 7.5 0 1 0 -15 0zM1041.27 426.15 a7.5 7.5 0 1 0 15 0 a7.5 7.5 0 1 0 -15 0zM1106.22 538.65 a7.5 7.5 0 1 0 15 0 a7.5 7.5 0 1 0 -15 0zM1041.27 576.15 a7.5 7.5 0 1 0 15 0 a7.5 7.5 0 1 0 -15 0zM1106.22 763.65 a7.5 7.5 0 1 0 15 0 a7.5 7.5 0 1 0 -15 0zM1171.18 801.15 a7.5 7.5 0 1 0 15 0 a7.5 7.5 0 1 0 -15 0zM1171.18 876.15 a7.5 7.5 0 1 0 15 0 a7.5 7.5 0 1 0 -15 0zM1106.22 913.65 a7.5 7.5 0 1 0 15 0 a7.5 7.5 0 1 0 -15 0zM1041.27 876.15 a7.5 7.5 0 1 0 15 0 a7.5 7.5 0 1 0 -15 0zM1041.27 801.15 a7.5 7.5 0 1 0 15 0 a7.5 7.5 0 1 0 -15 0zM1106.22 988.65 a7.5 7.5 0 1 0 15 0 a7.5 7.5 0 1 0 -15 0zM1171.18 1026.15 a7.5 7.5 0 1 0 15 0 a7.5 7.5 0 1 0 -15 0zM1171.18 1101.15 a7.5 7.5 0 1 0 15 0 a7.5 7.5 0 1 0 -15 0zM1106.22 1138.65 a7.5 7.5 0 1 0 15 0 a7.5 7.5 0 1 0 -15 0zM1041.27 1101.15 a7.5 7.5 0 1 0 15 0 a7.5 7.5 0 1 0 -15 0zM1041.27 1026.15 a7.5 7.5 0 1 0 15 0 a7.5 7.5 0 1 0 -15 0zM1236.13 88.65 a7.5 7.5 0 1 0 15 0 a7.5 7.5 0 1 0 -15 0zM1301.08 126.15 a7.5 7.5 0 1 0 15 0 a7.5 7.5 0 1 0 -15 0zM1301.08 201.15 a7.5 7.5 0 1 0 15 0 a7.5 7.5 0 1 0 -15 0zM1236.13 238.65 a7.5 7.5 0 1 0 15 0 a7.5 7.5 0 1 0 -15 0zM1171.18 201.15 a7.5 7.5 0 1 0 15 0 a7.5 7.5 0 1 0 -15 0zM1171.18 126.15 a7.5 7.5 0 1 0 15 0 a7.5 7.5 0 1 0 -15 0zM1236.13 313.65 a7.5 7.5 0 1 0 15 0 a7.5 7.5 0 1 0 -15 0zM1236.13 538.65 a7.5 7.5 0 1 0 15 0 a7.5 7.5 0 1 0 -15 0zM1301.08 576.15 a7.5 7.5 0 1 0 15 0 a7.5 7.5 0 1 0 -15 0zM1301.08 651.15 a7.5 7.5 0 1 0 15 0 a7.5 7.5 0 1 0 -15 0zM1236.13 688.65 a7.5 7.5 0 1 0 15 0 a7.5 7.5 0 1 0 -15 0zM1171.18 651.15 a7.5 7.5 0 1 0 15 0 a7.5 7.5 0 1 0 -15 0zM1171.18 576.15 a7.5 7.5 0 1 0 15 0 a7.5 7.5 0 1 0 -15 0zM1236.13 988.65 a7.5 7.5 0 1 0 15 0 a7.5 7.5 0 1 0 -15 0zM1301.08 1026.15 a7.5 7.5 0 1 0 15 0 a7.5 7.5 0 1 0 -15 0zM1301.08 1101.15 a7.5 7.5 0 1 0 15 0 a7.5 7.5 0 1 0 -15 0zM1236.13 1138.65 a7.5 7.5 0 1 0 15 0 a7.5 7.5 0 1 0 -15 0zM1301.09 876.15 a7.5 7.5 0 1 0 15 0 a7.5 7.5 0 1 0 -15 0zM1366.04 913.65 a7.5 7.5 0 1 0 15 0 a7.5 7.5 0 1 0 -15 0zM1366.04 988.65 a7.5 7.5 0 1 0 15 0 a7.5 7.5 0 1 0 -15 0zM1301.09 1026.15 a7.5 7.5 0 1 0 15 0 a7.5 7.5 0 1 0 -15 0zM1236.13 913.65 a7.5 7.5 0 1 0 15 0 a7.5 7.5 0 1 0 -15 0zM1430.99 201.15 a7.5 7.5 0 1 0 15 0 a7.5 7.5 0 1 0 -15 0zM1495.95 238.65 a7.5 7.5 0 1 0 15 0 a7.5 7.5 0 1 0 -15 0zM1495.95 313.65 a7.5 7.5 0 1 0 15 0 a7.5 7.5 0 1 0 -15 0zM1430.99 351.15 a7.5 7.5 0 1 0 15 0 a7.5 7.5 0 1 0 -15 0zM1366.04 313.65 a7.5 7.5 0 1 0 15 0 a7.5 7.5 0 1 0 -15 0zM1366.04 238.65 a7.5 7.5 0 1 0 15 0 a7.5 7.5 0 1 0 -15 0zM1560.9 351.15 a7.5 7.5 0 1 0 15 0 a7.5 7.5 0 1 0 -15 0zM1560.9 426.15 a7.5 7.5 0 1 0 15 0 a7.5 7.5 0 1 0 -15 0zM1495.95 463.65 a7.5 7.5 0 1 0 15 0 a7.5 7.5 0 1 0 -15 0zM1430.99 426.15 a7.5 7.5 0 1 0 15 0 a7.5 7.5 0 1 0 -15 0zM1430.99 651.15 a7.5 7.5 0 1 0 15 0 a7.5 7.5 0 1 0 -15 0zM1495.95 688.65 a7.5 7.5 0 1 0 15 0 a7.5 7.5 0 1 0 -15 0zM1495.95 763.65 a7.5 7.5 0 1 0 15 0 a7.5 7.5 0 1 0 -15 0zM1430.99 801.15 a7.5 7.5 0 1 0 15 0 a7.5 7.5 0 1 0 -15 0zM1366.04 763.65 a7.5 7.5 0 1 0 15 0 a7.5 7.5 0 1 0 -15 0zM1366.04 688.65 a7.5 7.5 0 1 0 15 0 a7.5 7.5 0 1 0 -15 0zM1560.9 801.15 a7.5 7.5 0 1 0 15 0 a7.5 7.5 0 1 0 -15 0zM1560.9 876.15 a7.5 7.5 0 1 0 15 0 a7.5 7.5 0 1 0 -15 0zM1495.95 913.65 a7.5 7.5 0 1 0 15 0 a7.5 7.5 0 1 0 -15 0zM1430.99 876.15 a7.5 7.5 0 1 0 15 0 a7.5 7.5 0 1 0 -15 0z" fill="#03305d"></path>
        <path d="M70.31 228.37L149.12 273.87L149.12 364.87L70.31 410.37L-8.5 364.87L-8.5 273.87zM70.31 501.37L149.12 546.87L149.12 637.87L70.31 683.37L-8.5 637.87L-8.5 546.87zM149.12 637.87L227.93 683.37L227.93 774.37L149.12 819.87L70.31 774.37L70.31 683.37zM70.31 774.37L149.12 819.87L149.12 910.87L70.31 956.37L-8.5 910.87L-8.5 819.87zM227.93 228.37L306.74 273.87L306.74 364.87L227.93 410.37L149.12 364.87L149.12 273.87zM306.74 364.87L385.55 410.37L385.55 501.37L306.74 546.87L227.93 501.37L227.93 410.37zM306.74 637.87L385.55 683.37L385.55 774.37L306.74 819.87L227.93 774.37L227.93 683.37zM464.36 910.87L543.17 956.37L543.17 1047.37L464.36 1092.87L385.55 1047.37L385.55 956.37zM385.55 1047.37L464.36 1092.87L464.36 1183.87L385.55 1229.37L306.74 1183.87L306.74 1092.87zM543.17 -44.63L621.98 0.87L621.98 91.87L543.17 137.37L464.36 91.87L464.36 0.87zM543.17 1047.37L621.98 1092.87L621.98 1183.87L543.17 1229.37L464.36 1183.87L464.36 1092.87zM700.79 -44.63L779.6 0.87L779.6 91.87L700.79 137.37L621.98 91.87L621.98 0.87zM858.42 -44.63L937.23 0.87L937.23 91.87L858.42 137.37L779.6 91.87L779.6 0.87zM1094.85 91.87L1173.66 137.37L1173.66 228.37L1094.85 273.87L1016.04 228.37L1016.04 137.37zM1252.47 637.87L1331.28 683.37L1331.28 774.37L1252.47 819.87L1173.66 774.37L1173.66 683.37zM1173.66 1047.37L1252.47 1092.87L1252.47 1183.87L1173.66 1229.37L1094.85 1183.87L1094.85 1092.87zM1567.71 91.87L1646.52 137.37L1646.52 228.37L1567.71 273.87L1488.9 228.37L1488.9 137.37zM1488.9 501.37L1567.71 546.87L1567.71 637.87L1488.9 683.37L1410.09 637.87L1410.09 546.87z" stroke="url(#SvgjsLinearGradient1005)" stroke-width="2"></path>
    </g>
    <defs>
        <mask id="SvgjsMask1004">
            <rect width="1440" height="1024" fill="#ffffff"></rect>
        </mask>
        <linearGradient x1="103.968" y1="-104.0384" x2="1336.032" y2="1128.0384" gradientUnits="userSpaceOnUse" id="SvgjsLinearGradient1005">
            <stop stop-color="#0e2a47" offset="0"></stop>
            <stop stop-color="rgba(70, 74, 80, 1)" offset="1"></stop>
        </linearGradient>
    </defs>
</svg>