<?xml version="1.0" encoding="UTF-8" standalone="no"?>
<!DOCTYPE svg PUBLIC "-//W3C//DTD SVG 1.1//EN"
 "http://www.w3.org/Graphics/SVG/1.1/DTD/svg11.dtd">
<!-- Generated by graphviz version 2.47.3 (20210619.1520)
 -->
<!-- Title: dependencies Pages: 1 -->
<svg width="626pt" height="247pt"
 viewBox="0.00 0.00 626.00 246.80" xmlns="http://www.w3.org/2000/svg" xmlns:xlink="http://www.w3.org/1999/xlink">
<g id="graph0" class="graph" transform="scale(1 1) rotate(0) translate(4 242.8)">
<title>dependencies</title>
<polygon fill="white" stroke="transparent" points="-4,4 -4,-242.8 622,-242.8 622,4 -4,4"/>
<text text-anchor="middle" x="309" y="-8.2" font-family="sans-serif" font-size="14.00">dependencies</text>
<g id="clust1" class="cluster">
<title>cluster_ViewsModule</title>
<polygon fill="none" stroke="black" stroke-dasharray="1,5" points="8,-32.8 8,-230.8 610,-230.8 610,-32.8 8,-32.8"/>
</g>
<g id="clust5" class="cluster">
<title>cluster_ViewsModule_imports</title>
<polygon fill="none" stroke="black" points="330,-40.8 330,-92.8 602,-92.8 602,-40.8 330,-40.8"/>
</g>
<g id="clust2" class="cluster">
<title>cluster_ViewsModule_declarations</title>
<polygon fill="none" stroke="black" points="16,-40.8 16,-92.8 322,-92.8 322,-40.8 16,-40.8"/>
</g>
<g id="clust6" class="cluster">
<title>cluster_ViewsModule_exports</title>
<polygon fill="none" stroke="black" points="246,-170.8 246,-222.8 406,-222.8 406,-170.8 246,-170.8"/>
</g>
<!-- QuestionsComponent -->
<g id="node1" class="node">
<title>QuestionsComponent</title>
<polygon fill="#ffffb3" stroke="black" points="313.82,-84.8 176.18,-84.8 176.18,-48.8 313.82,-48.8 313.82,-84.8"/>
<text text-anchor="middle" x="245" y="-62.6" font-family="Times,serif" font-size="14.00">QuestionsComponent</text>
</g>
<!-- ViewsModule -->
<g id="node3" class="node">
<title>ViewsModule</title>
<polygon fill="#8dd3c7" stroke="black" points="373.81,-149.8 370.81,-153.8 349.81,-153.8 346.81,-149.8 278.19,-149.8 278.19,-113.8 373.81,-113.8 373.81,-149.8"/>
<text text-anchor="middle" x="326" y="-127.6" font-family="Times,serif" font-size="14.00">ViewsModule</text>
</g>
<!-- QuestionsComponent&#45;&gt;ViewsModule -->
<g id="edge1" class="edge">
<title>QuestionsComponent&#45;&gt;ViewsModule</title>
<path fill="none" stroke="black" d="M296,-84.91C296,-84.91 296,-103.79 296,-103.79"/>
<polygon fill="black" stroke="black" points="292.5,-103.79 296,-113.79 299.5,-103.79 292.5,-103.79"/>
</g>
<!-- WelcomeComponent -->
<g id="node2" class="node">
<title>WelcomeComponent</title>
<polygon fill="#ffffb3" stroke="black" points="158.47,-84.8 23.53,-84.8 23.53,-48.8 158.47,-48.8 158.47,-84.8"/>
<text text-anchor="middle" x="91" y="-62.6" font-family="Times,serif" font-size="14.00">WelcomeComponent</text>
</g>
<!-- WelcomeComponent&#45;&gt;ViewsModule -->
<g id="edge2" class="edge">
<title>WelcomeComponent&#45;&gt;ViewsModule</title>
<path fill="none" stroke="black" d="M91,-84.91C91,-104.14 91,-131.8 91,-131.8 91,-131.8 268.16,-131.8 268.16,-131.8"/>
<polygon fill="black" stroke="black" points="268.16,-135.3 278.16,-131.8 268.16,-128.3 268.16,-135.3"/>
</g>
<!-- ViewsRoutingModule  -->
<g id="node6" class="node">
<title>ViewsRoutingModule </title>
<polygon fill="#fb8072" stroke="black" points="397.93,-214.8 254.07,-214.8 254.07,-178.8 397.93,-178.8 397.93,-214.8"/>
<text text-anchor="middle" x="326" y="-192.6" font-family="Times,serif" font-size="14.00">ViewsRoutingModule </text>
</g>
<!-- ViewsModule&#45;&gt;ViewsRoutingModule  -->
<g id="edge5" class="edge">
<title>ViewsModule&#45;&gt;ViewsRoutingModule </title>
<path fill="none" stroke="black" stroke-dasharray="5,2" d="M326,-149.91C326,-149.91 326,-168.79 326,-168.79"/>
<polygon fill="black" stroke="black" points="322.5,-168.79 326,-178.79 329.5,-168.79 322.5,-168.79"/>
</g>
<!-- SharedModule -->
<g id="node4" class="node">
<title>SharedModule</title>
<polygon fill="#8dd3c7" stroke="black" points="594.42,-84.8 591.42,-88.8 570.42,-88.8 567.42,-84.8 495.58,-84.8 495.58,-48.8 594.42,-48.8 594.42,-84.8"/>
<text text-anchor="middle" x="545" y="-62.6" font-family="Times,serif" font-size="14.00">SharedModule</text>
</g>
<!-- SharedModule&#45;&gt;ViewsModule -->
<g id="edge3" class="edge">
<title>SharedModule&#45;&gt;ViewsModule</title>
<path fill="none" stroke="black" d="M545,-84.91C545,-104.14 545,-131.8 545,-131.8 545,-131.8 383.79,-131.8 383.79,-131.8"/>
<polygon fill="black" stroke="black" points="383.79,-128.3 373.79,-131.8 383.79,-135.3 383.79,-128.3"/>
</g>
<!-- ViewsRoutingModule -->
<g id="node5" class="node">
<title>ViewsRoutingModule</title>
<polygon fill="#8dd3c7" stroke="black" points="478.43,-84.8 475.43,-88.8 454.43,-88.8 451.43,-84.8 337.57,-84.8 337.57,-48.8 478.43,-48.8 478.43,-84.8"/>
<text text-anchor="middle" x="408" y="-62.6" font-family="Times,serif" font-size="14.00">ViewsRoutingModule</text>
</g>
<!-- ViewsRoutingModule&#45;&gt;ViewsModule -->
<g id="edge4" class="edge">
<title>ViewsRoutingModule&#45;&gt;ViewsModule</title>
<path fill="none" stroke="black" d="M355.72,-84.91C355.72,-84.91 355.72,-103.79 355.72,-103.79"/>
<polygon fill="black" stroke="black" points="352.22,-103.79 355.72,-113.79 359.22,-103.79 352.22,-103.79"/>
</g>
</g>
</svg>
